<svg xmlns="http://www.w3.org/2000/svg" viewBox="0 0 100 120" width="100" height="120">
  <path d="M15 80 Q30 50 60 55 Q80 58 90 75 Q80 90 60 95 Q30 100 15 80 Z" fill="#4090D0"/>
  <path d="M25 78 Q40 65 60 68 Q75 72 82 80 Q75 88 60 88 Q40 90 25 78 Z" fill="#C0E0F0"/>
  <path d="M50 55 Q55 35 62 40 Q58 50 60 55 Z" fill="#3070B8"/>
  <path d="M15 80 Q5 65 12 58 Q18 70 15 80 Z" fill="#3070B8"/>
  <path d="M15 80 Q5 95 12 102 Q18 90 15 80 Z" fill="#3070B8"/>
  <path d="M82 75 Q95 72 98 78 Q95 84 82 80 Z" fill="#4090D0"/>
  <circle cx="78" cy="70" r="4" fill="white"/>
  <circle cx="78" cy="70" r="2.5" fill="#0a2040"/>
  <circle cx="79" cy="69" r="1" fill="white"/>
  <path d="M84 78 Q90 80 94 78" stroke="#3070B8" stroke-width="1.5" fill="none" stroke-linecap="round"/>
  <path d="M65 72 Q70 85 62 88 Q58 78 65 72 Z" fill="#3070B8"/>
</svg>
