<svg xmlns="http://www.w3.org/2000/svg" viewBox="0 0 150 150" width="150" height="150">
  <!-- cos -->
  <ellipse cx="75" cy="110" rx="35" ry="28" fill="#E8A020"/>
  <!-- taques cos -->
  <ellipse cx="62" cy="105" rx="8" ry="10" fill="#8B4A00" opacity="0.5"/>
  <ellipse cx="85" cy="115" rx="9" ry="7" fill="#8B4A00" opacity="0.5"/>
  <ellipse cx="70" cy="125" rx="7" ry="8" fill="#8B4A00" opacity="0.5"/>
  <!-- coll curt -->
  <rect x="58" y="68" width="34" height="30" rx="10" fill="#E8A020"/>
  <ellipse cx="65" cy="80" rx="5" ry="10" fill="#8B4A00" opacity="0.4"/>
  <ellipse cx="82" cy="75" rx="5" ry="8" fill="#8B4A00" opacity="0.4"/>
  <!-- cap gran centrat -->
  <ellipse cx="75" cy="55" rx="28" ry="22" fill="#E8A020"/>
  <!-- banyes -->
  <line x1="62" y1="35" x2="58" y2="18" stroke="#8B4A00" stroke-width="5" stroke-linecap="round"/>
  <line x1="88" y1="35" x2="92" y2="18" stroke="#8B4A00" stroke-width="5" stroke-linecap="round"/>
  <circle cx="58" cy="16" r="5" fill="#8B4A00"/>
  <circle cx="92" cy="16" r="5" fill="#8B4A00"/>
  <!-- taques cap -->
  <ellipse cx="62" cy="50" rx="7" ry="6" fill="#8B4A00" opacity="0.4"/>
  <ellipse cx="88" cy="58" rx="6" ry="5" fill="#8B4A00" opacity="0.4"/>
  <!-- ulls -->
  <circle cx="62" cy="48" r="6" fill="white"/>
  <circle cx="88" cy="48" r="6" fill="white"/>
  <circle cx="62" cy="48" r="4" fill="#1a0a00"/>
  <circle cx="88" cy="48" r="4" fill="#1a0a00"/>
  <circle cx="63" cy="47" r="1.8" fill="white"/>
  <circle cx="89" cy="47" r="1.8" fill="white"/>
  <!-- nas -->
  <ellipse cx="75" cy="65" rx="6" ry="4" fill="#8B4A00"/>
  <!-- boca -->
  <path d="M68 70 Q75 75 82 70" stroke="#8B4A00" stroke-width="2" fill="none" stroke-linecap="round"/>
  <!-- potes -->
  <rect x="48" y="132" width="12" height="16" rx="4" fill="#C8780A"/>
  <rect x="66" y="134" width="12" height="14" rx="4" fill="#C8780A"/>
  <rect x="84" y="132" width="12" height="16" rx="4" fill="#C8780A"/>
</svg>
