<svg xmlns="http://www.w3.org/2000/svg" viewBox="0 0 100 150" width="100" height="150">
  <rect x="35" y="60" width="30" height="50" rx="8" fill="#E8A020"/>
  <ellipse cx="42" cy="70" rx="5" ry="7" fill="#8B4A00" opacity="0.6"/>
  <ellipse cx="55" cy="80" rx="6" ry="5" fill="#8B4A00" opacity="0.6"/>
  <ellipse cx="40" cy="95" rx="4" ry="6" fill="#8B4A00" opacity="0.6"/>
  <rect x="42" y="20" width="16" height="45" rx="6" fill="#E8A020"/>
  <ellipse cx="45" cy="50" rx="3" ry="12" fill="#8B4A00" opacity="0.5"/>
  <ellipse cx="55" cy="45" rx="3" ry="10" fill="#8B4A00" opacity="0.5"/>
  <ellipse cx="50" cy="18" rx="15" ry="12" fill="#E8A020"/>
  <line x1="44" y1="8" x2="42" y2="0" stroke="#8B4A00" stroke-width="3" stroke-linecap="round"/>
  <line x1="56" y1="8" x2="58" y2="0" stroke="#8B4A00" stroke-width="3" stroke-linecap="round"/>
  <circle cx="42" cy="0" r="3" fill="#8B4A00"/>
  <circle cx="58" cy="0" r="3" fill="#8B4A00"/>
  <circle cx="44" cy="16" r="3.5" fill="white"/>
  <circle cx="56" cy="16" r="3.5" fill="white"/>
  <circle cx="44" cy="16" r="2" fill="#1a0a00"/>
  <circle cx="56" cy="16" r="2" fill="#1a0a00"/>
  <ellipse cx="50" cy="24" rx="4" ry="2.5" fill="#8B4A00"/>
  <rect x="36" y="106" width="8" height="18" rx="3" fill="#C8780A"/>
  <rect x="48" y="106" width="8" height="18" rx="3" fill="#C8780A"/>
  <rect x="60" y="106" width="8" height="18" rx="3" fill="#C8780A"/>
</svg>
