<svg xmlns="http://www.w3.org/2000/svg" viewBox="0 0 150 180" width="150" height="180">
  <path d="M120 120 Q160 80 155 50 Q148 20 130 30 Q115 40 118 70 Q120 95 108 110 Z" fill="#E86820"/>
  <path d="M148 22 Q155 18 158 28 Q155 38 145 42 Q138 36 140 28 Z" fill="#f5f5f5"/>
  <ellipse cx="75" cy="118" rx="45" ry="35" fill="#E86820"/>
  <ellipse cx="75" cy="125" rx="28" ry="22" fill="#f5d0b0"/>
  <ellipse cx="75" cy="72" rx="30" ry="26" fill="#E86820"/>
  <ellipse cx="75" cy="85" rx="16" ry="12" fill="#f5d0b0"/>
  <path d="M50 52 L42 20 L65 46 Z" fill="#E86820"/>
  <path d="M100 52 L108 20 L85 46 Z" fill="#E86820"/>
  <path d="M52 50 L46 28 L63 47 Z" fill="#d04040" opacity="0.7"/>
  <path d="M98 50 L104 28 L87 47 Z" fill="#d04040" opacity="0.7"/>
  <ellipse cx="61" cy="68" rx="10" ry="8" fill="#1a0a00" opacity="0.8"/>
  <ellipse cx="89" cy="68" rx="10" ry="8" fill="#1a0a00" opacity="0.8"/>
  <circle cx="61" cy="68" r="5" fill="#F0C030"/>
  <circle cx="89" cy="68" r="5" fill="#F0C030"/>
  <circle cx="61" cy="68" r="3" fill="#0a0a00"/>
  <circle cx="89" cy="68" r="3" fill="#0a0a00"/>
  <circle cx="62" cy="67" r="1.2" fill="white"/>
  <circle cx="90" cy="67" r="1.2" fill="white"/>
  <ellipse cx="75" cy="82" rx="5" ry="3.5" fill="#0a0a00"/>
  <path d="M70 87 Q75 92 80 87" stroke="#0a0a00" stroke-width="1.5" fill="none" stroke-linecap="round"/>
  <line x1="55" y1="84" x2="70" y2="83" stroke="#0a0a00" stroke-width="1" opacity="0.6"/>
  <line x1="55" y1="87" x2="70" y2="86" stroke="#0a0a00" stroke-width="1" opacity="0.6"/>
  <line x1="80" y1="83" x2="95" y2="84" stroke="#0a0a00" stroke-width="1" opacity="0.6"/>
  <line x1="80" y1="86" x2="95" y2="87" stroke="#0a0a00" stroke-width="1" opacity="0.6"/>
  <rect x="48" y="140" width="14" height="22" rx="7" fill="#E86820"/>
  <rect x="88" y="140" width="14" height="22" rx="7" fill="#E86820"/>
  <ellipse cx="55" cy="162" rx="8" ry="4" fill="#1a0a00"/>
  <ellipse cx="95" cy="162" rx="8" ry="4" fill="#1a0a00"/>
</svg>
