<svg xmlns="http://www.w3.org/2000/svg" viewBox="0 0 100 135" width="100" height="135">
  <circle cx="50" cy="62" r="32" fill="#C8780A"/>
  <ellipse cx="50" cy="98" rx="24" ry="20" fill="#E8A020"/>
  <circle cx="50" cy="58" r="22" fill="#E8A020"/>
  <circle cx="30" cy="40" r="8" fill="#C8780A"/>
  <circle cx="70" cy="40" r="8" fill="#C8780A"/>
  <circle cx="30" cy="40" r="5" fill="#E8A020"/>
  <circle cx="70" cy="40" r="5" fill="#E8A020"/>
  <circle cx="43" cy="54" r="4.5" fill="#F0D060"/>
  <circle cx="57" cy="54" r="4.5" fill="#F0D060"/>
  <circle cx="43" cy="54" r="2.5" fill="#1a0a00"/>
  <circle cx="57" cy="54" r="2.5" fill="#1a0a00"/>
  <circle cx="44" cy="53" r="1" fill="white"/>
  <circle cx="58" cy="53" r="1" fill="white"/>
  <path d="M44 64 Q50 62 56 64 L53 70 Q50 72 47 70 Z" fill="#9A4010"/>
  <line x1="32" y1="66" x2="44" y2="65" stroke="#7a3500" stroke-width="1" opacity="0.7"/>
  <line x1="32" y1="69" x2="44" y2="67" stroke="#7a3500" stroke-width="1" opacity="0.7"/>
  <line x1="56" y1="65" x2="68" y2="66" stroke="#7a3500" stroke-width="1" opacity="0.7"/>
  <line x1="56" y1="67" x2="68" y2="69" stroke="#7a3500" stroke-width="1" opacity="0.7"/>
  <path d="M74 90 Q90 85 88 100 Q86 110 80 108" stroke="#C8780A" stroke-width="4" fill="none" stroke-linecap="round"/>
  <circle cx="80" cy="108" r="6" fill="#C8780A"/>
</svg>
