<svg xmlns="http://www.w3.org/2000/svg" viewBox="0 0 150 175" width="150" height="175">
  <ellipse cx="75" cy="112" rx="42" ry="38" fill="#f5f5f5"/>
  <ellipse cx="42" cy="115" rx="18" ry="22" fill="#1a1a1a"/>
  <ellipse cx="108" cy="115" rx="18" ry="22" fill="#1a1a1a"/>
  <circle cx="75" cy="65" r="35" fill="#f5f5f5"/>
  <circle cx="45" cy="36" r="16" fill="#1a1a1a"/>
  <circle cx="105" cy="36" r="16" fill="#1a1a1a"/>
  <circle cx="45" cy="36" r="9" fill="#2a2a2a"/>
  <circle cx="105" cy="36" r="9" fill="#2a2a2a"/>
  <ellipse cx="60" cy="62" rx="14" ry="12" fill="#1a1a1a"/>
  <ellipse cx="90" cy="62" rx="14" ry="12" fill="#1a1a1a"/>
  <circle cx="60" cy="63" r="7" fill="white"/>
  <circle cx="90" cy="63" r="7" fill="white"/>
  <circle cx="60" cy="64" r="4.5" fill="#0a0a0a"/>
  <circle cx="90" cy="64" r="4.5" fill="#0a0a0a"/>
  <circle cx="61" cy="62" r="2" fill="white"/>
  <circle cx="91" cy="62" r="2" fill="white"/>
  <ellipse cx="75" cy="76" rx="6" ry="4" fill="#1a1a1a"/>
  <path d="M68 82 Q75 88 82 82" stroke="#1a1a1a" stroke-width="2" fill="none" stroke-linecap="round"/>
  <ellipse cx="46" cy="142" rx="16" ry="10" fill="#1a1a1a"/>
  <ellipse cx="104" cy="142" rx="16" ry="10" fill="#1a1a1a"/>
</svg>
